<?xml version="1.0" encoding="UTF-8" ?>
<!DOCTYPE svg PUBLIC "-//W3C//DTD SVG 1.1//EN" "http://www.w3.org/Graphics/SVG/1.1/DTD/svg11.dtd">
<svg width="100%" height="100%" viewBox="0 0 464 464" version="1.1" xmlns="http://www.w3.org/2000/svg">
    <g id="icon">
        <path d="M52.485,104.469L52.485,97.064C52.485,65.599 78.083,40 109.549,40L359.501,40C390.967,40 416.566,65.599 416.566,97.064L416.566,306.715C416.621,306.594 401.566,306.8 401.566,306.8L401.566,97.064C401.566,73.87 382.697,55.001 359.501,55L109.549,55C86.354,55.001 67.485,73.87 67.485,97.064L67.485,116.518L67.689,116.927L67.689,351.764C67.689,374.728 86.348,393.455 109.38,393.455L309.771,393.455C332.736,393.455 351.463,374.797 351.463,351.764L351.463,134.082C351.463,129.571 355.153,125.88 359.664,125.88C364.175,125.88 367.866,129.571 367.797,134.082L367.797,351.696C367.797,383.75 341.757,409.79 309.703,409.79L109.38,409.79C77.326,409.79 51.286,383.75 51.286,351.696L51.286,108.725C51.286,107.17 51.725,105.712 52.485,104.469Z"></path>
        <path d="M293.35,126.222C297.861,126.222 301.552,122.531 301.552,118.021C301.552,113.51 297.861,109.819 293.35,109.819L114.556,109.819C110.046,109.819 106.355,113.51 106.355,118.021C106.355,122.531 110.046,126.222 114.556,126.222L293.35,126.222Z"></path>
        <path d="M293.35,276.994L114.556,276.994C110.046,276.994 106.355,280.685 106.355,285.195C106.355,289.706 110.046,293.397 114.556,293.397L293.282,293.397C297.793,293.397 301.483,289.706 301.483,285.195C301.483,280.685 297.861,276.994 293.35,276.994Z"></path>
        <path d="M264.35,319.027L113.92,319.027C109.409,319.027 105.719,322.718 105.719,327.228C105.719,331.739 109.409,335.43 113.92,335.43L264.35,335.43C268.861,335.43 272.552,331.739 272.552,327.228C272.552,322.718 268.861,319.027 264.35,319.027Z"></path>
        <path d="M103.621,154.859L103.621,243.573C103.621,248.083 107.312,251.774 111.823,251.774L200.878,251.774C205.388,251.774 209.079,248.083 209.079,243.573L209.079,154.859C209.079,150.348 205.388,146.658 200.878,146.658L111.823,146.658C107.312,146.658 103.621,150.348 103.621,154.859ZM120.024,163.061L192.676,163.061L192.676,235.371L120.024,235.371L120.024,163.061Z"></path>
        <path d="M297.724,154.859L238.741,154.859C234.231,154.859 230.54,158.55 230.54,163.061C230.54,167.572 234.231,171.262 238.741,171.262L297.724,171.262C302.235,171.262 305.926,167.572 305.926,163.061C305.926,158.55 302.303,154.859 297.724,154.859Z"></path>
        <path d="M297.724,191.903L238.741,191.903C234.231,191.903 230.54,195.594 230.54,200.104C230.54,204.615 234.231,208.306 238.741,208.306L297.724,208.306C302.235,208.306 305.926,204.615 305.926,200.104C305.926,195.594 302.303,191.903 297.724,191.903Z"></path>
        <path d="M305.926,239.472C305.926,234.961 302.235,231.27 297.724,231.27L238.741,231.27C234.231,231.27 230.54,234.961 230.54,239.472C230.54,243.983 234.231,247.673 238.741,247.673L297.724,247.673C302.303,247.673 305.926,243.983 305.926,239.472Z"></path>
    </g>
</svg>
