<?xml version="1.0" encoding="UTF-8" standalone="no"?>
<!DOCTYPE svg PUBLIC "-//W3C//DTD SVG 1.1//EN" "http://www.w3.org/Graphics/SVG/1.1/DTD/svg11.dtd">
<svg  fill="white" width="100%" height="100%" viewBox="0 0 470 470" version="1.1" xmlns="http://www.w3.org/2000/svg" xmlns:xlink="http://www.w3.org/1999/xlink" xml:space="preserve" xmlns:serif="http://www.serif.com/" style="fill-rule:evenodd;clip-rule:evenodd;stroke-linejoin:round;stroke-miterlimit:2;">
    <symbol  fill="white" id="icon" viewBox="0 0 470 470">
        <g>
            <g transform="matrix(1,0,0,1,5,18)">
                <path d="M93.633,266.716C93.633,262.573 90.276,259.216 86.133,259.216L66.569,259.216L49.286,259.216L49.286,57.064C49.286,33.87 68.156,15 91.351,15L304.303,15C327.497,15 346.367,33.87 346.367,57.064L346.367,303.284C346.367,307.427 349.724,310.784 353.867,310.784C358.011,310.782 361.367,307.426 361.367,303.284L361.367,57.064C361.367,25.599 335.769,0 304.303,0L91.351,0C59.885,0 34.286,25.599 34.286,57.064L34.286,266.715C34.286,270.858 37.643,274.215 41.786,274.215L86.133,274.215C90.274,274.216 93.63,270.861 93.633,266.716Z" style="fill-rule:nonzero;"/>
            </g>
            <g transform="matrix(1,0,0,1,5,18)">
                <path d="M428.214,325.784L353.87,325.784L189.845,325.784C185.702,325.784 182.345,329.141 182.345,333.284L182.345,348.153C182.345,357.682 174.592,365.435 165.063,365.435C160.92,365.435 157.563,368.792 157.563,372.935C157.563,377.078 160.92,380.435 165.063,380.435C182.864,380.435 197.345,365.954 197.345,348.153L197.345,340.784L420.714,340.784L420.714,372.935C420.714,396.129 401.844,414.999 378.65,414.999L165.697,414.999C142.503,414.999 123.633,396.129 123.633,372.935L123.633,81.847C123.633,64.046 109.152,49.565 91.351,49.565C87.208,49.565 83.851,52.922 83.851,57.065C83.851,57.449 83.889,57.823 83.945,58.192C84.49,61.798 87.593,64.565 91.351,64.565C100.88,64.565 108.633,72.318 108.633,81.847L108.633,372.936C108.633,404.402 134.232,430 165.697,430L378.649,430C410.115,430 435.713,404.401 435.713,372.936L435.713,333.285C435.714,329.142 432.356,325.784 428.214,325.784Z" style="fill-rule:nonzero;"/>
            </g>
            <g transform="matrix(1,0,0,1,5,18)">
                <path d="M303.867,261.274L166.133,261.274C161.99,261.274 158.633,264.631 158.633,268.774C158.633,272.917 161.99,276.274 166.133,276.274L303.867,276.274C308.01,276.274 311.367,272.917 311.367,268.774C311.367,264.631 308.01,261.274 303.867,261.274Z" style="fill-rule:nonzero;"/>
            </g>
            <g transform="matrix(1,0,0,1,5,18)">
                <path d="M303.867,209.02L166.133,209.02C161.99,209.02 158.633,212.377 158.633,216.52C158.633,220.663 161.99,224.02 166.133,224.02L303.867,224.02C308.01,224.02 311.367,220.663 311.367,216.52C311.367,212.377 308.01,209.02 303.867,209.02Z" style="fill-rule:nonzero;"/>
            </g>
            <g transform="matrix(1,0,0,1,5,18)">
                <path d="M303.867,156.765L166.133,156.765C161.99,156.765 158.633,160.122 158.633,164.265C158.633,168.408 161.99,171.765 166.133,171.765L303.867,171.765C308.01,171.765 311.367,168.408 311.367,164.265C311.367,160.122 308.01,156.765 303.867,156.765Z" style="fill-rule:nonzero;"/>
            </g>
            <g transform="matrix(1,0,0,1,5,18)">
                <path d="M297.367,59.755C297.367,55.612 294.01,52.255 289.867,52.255L152.133,52.255C147.99,52.255 144.633,55.612 144.633,59.755C144.633,63.898 147.99,67.255 152.133,67.255L289.867,67.255C294.01,67.255 297.367,63.897 297.367,59.755Z" style="fill-rule:nonzero;"/>
            </g>
            <g transform="matrix(1,0,0,1,5,18)">
                <path d="M303.867,104.51L166.133,104.51C161.99,104.51 158.633,107.867 158.633,112.01C158.633,116.153 161.99,119.51 166.133,119.51L303.867,119.51C308.01,119.51 311.367,116.153 311.367,112.01C311.367,107.867 308.01,104.51 303.867,104.51Z" style="fill-rule:nonzero;"/>
            </g>
        </g>
    </symbol>
</svg>
